<?xml version="1.0" encoding="utf-8"?>
<!-- Generator: Adobe Illustrator 26.0.0, SVG Export Plug-In . SVG Version: 6.00 Build 0)  -->
<svg version="1.1" id="Layer_1" xmlns="http://www.w3.org/2000/svg" xmlns:xlink="http://www.w3.org/1999/xlink" x="0px" y="0px"
	 viewBox="0 0 400 700" style="enable-background:new 0 0 400 700;" xml:space="preserve">
<style type="text/css">
	.st0{fill:#E9DEC4;}
</style>
<g>
	<path class="st0" d="M51.5,52.2l11.4-21l-5.3-1.4V27h14.9v2.8L67,31.2L53.7,55.7V70l6.2,1.4v2.8H41v-2.8l6.2-1.4V56.8L33.1,31.2
		l-5.4-1.4V27h18.1v2.8l-5.5,1.4L51.5,52.2z"/>
	<path class="st0" d="M132.5,50.1c0,3.8-0.6,7.4-1.7,10.7c-1.2,3.3-2.8,6.1-4.8,8.3c-1.8,1.9-3.9,3.4-6.4,4.3
		c-2.5,0.9-5.4,1.4-8.7,1.4c-3.3,0-6.2-0.5-8.8-1.4c-2.5-0.9-4.6-2.3-6.4-4.1c-2-2.1-3.6-4.7-4.6-7.9c-1.1-3.2-1.6-6.6-1.6-10.3
		c0-3.8,0.6-7.4,1.7-10.7c1.2-3.3,2.8-6.1,4.8-8.3c1.8-2,4-3.4,6.4-4.3c2.4-0.9,5.3-1.4,8.6-1.4c3.3,0,6.2,0.4,8.7,1.3
		c2.5,0.9,4.7,2.3,6.4,4.2c2.1,2.1,3.6,4.7,4.7,7.9C132,43,132.5,46.4,132.5,50.1z M97,49.8c0,3.6,0.3,6.8,0.9,9.7
		c0.6,2.8,1.5,5.1,2.6,6.9c1.1,1.6,2.6,2.8,4.3,3.6c1.7,0.8,3.9,1.2,6.4,1.2c4.6,0,8-1.4,10.2-4.3c1.2-1.6,2.1-3.8,2.7-6.4
		c0.6-2.7,0.9-5.8,0.9-9.5c0-3.6-0.3-6.8-0.9-9.6c-0.6-2.8-1.5-5-2.7-6.7c-1.1-1.7-2.6-2.9-4.4-3.7c-1.8-0.8-3.9-1.2-6.3-1.2
		c-2.3,0-4.3,0.4-6,1.1c-1.7,0.7-3.1,1.8-4.2,3.2C98.2,37.4,97,42.6,97,49.8z"/>
	<path class="st0" d="M190,57.2v-26l-5.5-1.4V27h15.1v2.8l-5.5,1.4v27c0,5.4-1.5,9.5-4.4,12.4c-2.9,2.8-7.2,4.3-12.8,4.3
		c-5.8,0-10.3-1.5-13.4-4.4c-3.1-2.9-4.7-7-4.7-12.3v-27l-5.5-1.4V27h17.5v2.8l-5.5,1.4v25.9c0,9.5,4.3,14.2,13,14.2
		c4.1,0,7.1-1.1,8.9-3.3C189.1,65.7,190,62.2,190,57.2z"/>
	<path class="st0" d="M265.4,31.2V70l6.2,1.4v2.8h-18.9v-2.8l6.2-1.4V31.2l-6.2-1.4V27h18.9v2.8L265.4,31.2z"/>
	<path class="st0" d="M52.2,129.7c-2.1,0-4,0.3-5.5,1c-1.5,0.7-2.8,1.7-3.8,3.1c-1.3,1.7-2.3,3.9-3.1,6.7c-0.7,2.8-1.1,5.8-1.1,9.1
		c0,3.1,0.3,6,1,8.7c0.7,2.7,1.6,5,2.8,6.8c1.2,1.8,2.6,3.2,4.3,4c1.7,0.9,3.8,1.3,6.3,1.3c7.9,0,12.4-3.7,13.7-11.1h3.6
		c-2,10.2-7.9,15.3-17.9,15.3c-6,0-10.8-1.7-14.4-5.2c-2.1-2.1-3.8-4.7-4.9-7.9c-1.1-3.2-1.7-6.7-1.7-10.6c0-4.4,0.7-8.4,2.2-12
		c1.4-3.6,3.5-6.4,6.1-8.6c3.3-2.8,7.7-4.1,13.2-4.1c2.7,0,4.9,0.3,6.6,1c1.7,0.7,3.4,1.9,5,3.7l1.3-4.1h3.6v14.5h-4
		c-0.6-3.8-2-6.7-4.2-8.7C59,130.7,56,129.7,52.2,129.7z"/>
	<path class="st0" d="M135,149.9c0,3.8-0.6,7.4-1.7,10.7c-1.2,3.3-2.8,6.1-4.8,8.3c-1.8,1.9-3.9,3.4-6.4,4.3
		c-2.5,0.9-5.4,1.4-8.7,1.4c-3.3,0-6.2-0.5-8.8-1.4c-2.5-0.9-4.6-2.3-6.4-4.1c-2-2.1-3.6-4.7-4.6-7.9c-1.1-3.2-1.6-6.6-1.6-10.3
		c0-3.8,0.6-7.4,1.7-10.7c1.2-3.3,2.8-6.1,4.8-8.3c1.8-2,4-3.4,6.4-4.3c2.4-0.9,5.3-1.4,8.6-1.4c3.3,0,6.2,0.4,8.7,1.3
		c2.5,0.9,4.7,2.3,6.4,4.2c2.1,2.1,3.6,4.7,4.7,7.9C134.5,142.8,135,146.2,135,149.9z M99.4,149.6c0,3.6,0.3,6.8,0.9,9.7
		c0.6,2.8,1.5,5.1,2.6,6.9c1.1,1.6,2.6,2.8,4.3,3.6c1.7,0.8,3.9,1.2,6.4,1.2c4.6,0,8-1.4,10.2-4.3c1.2-1.6,2.1-3.8,2.7-6.4
		c0.6-2.7,0.9-5.8,0.9-9.5c0-3.6-0.3-6.8-0.9-9.6c-0.6-2.8-1.5-5-2.7-6.7c-1.1-1.7-2.6-2.9-4.4-3.7c-1.8-0.8-3.9-1.2-6.3-1.2
		c-2.3,0-4.3,0.4-6,1.1c-1.7,0.7-3.1,1.8-4.2,3.2C100.6,137.2,99.4,142.4,99.4,149.6z"/>
	<path class="st0" d="M192.5,157v-26l-5.5-1.4v-2.8h15.1v2.8l-5.5,1.4v27c0,5.4-1.5,9.5-4.4,12.4c-2.9,2.8-7.2,4.3-12.8,4.3
		c-5.8,0-10.3-1.5-13.4-4.4c-3.1-2.9-4.7-7-4.7-12.3v-27l-5.5-1.4v-2.8h17.5v2.8l-5.5,1.4v25.9c0,9.5,4.3,14.2,13,14.2
		c4.1,0,7.1-1.1,8.9-3.3C191.6,165.5,192.5,162,192.5,157z"/>
	<path class="st0" d="M235.5,131v39h17.8l2.2-11.3h3.6V174h-36.3v-2.8l6.2-1.4V131l-6.2-1.4v-2.8h19.5v2.8L235.5,131z"/>
	<path class="st0" d="M280,126.8h22c6.5,0,11.6,1.8,15.2,5.5c2.1,2.1,3.6,4.7,4.7,7.7c1.1,3.1,1.6,6.3,1.6,9.8
		c0,3.7-0.6,7.1-1.7,10.3c-1.2,3.2-2.8,5.9-4.8,8.1c-3.6,3.8-8.8,5.7-15.6,5.7H280v-2.8l5.5-1.4V131l-5.5-1.4V126.8z M292.1,170.1
		h10.1c2.4,0,4.4-0.3,6.1-1c1.7-0.7,3.1-1.8,4.2-3.3c1.2-1.5,2.1-3.5,2.7-6c0.6-2.5,0.9-5.5,0.9-8.9c0-6.8-1.2-11.9-3.6-15.2
		c-1.1-1.7-2.6-2.9-4.4-3.7c-1.8-0.8-4-1.2-6.5-1.2h-9.5V170.1z"/>
	<path class="st0" d="M36.6,269.6v-38.8l-5.5-1.4v-2.8h12.5l24.5,36.2v-32l-5.5-1.4v-2.8h15.3v2.8l-5.5,1.4v43h-4.6l-26.8-39.2v35
		l5.5,1.4v2.8H31.1V271L36.6,269.6z"/>
	<path class="st0" d="M142.1,249.7c0,3.8-0.6,7.4-1.7,10.7c-1.2,3.3-2.8,6.1-4.8,8.3c-1.8,1.9-3.9,3.4-6.4,4.3
		c-2.5,0.9-5.4,1.4-8.7,1.4c-3.3,0-6.2-0.5-8.8-1.4c-2.5-0.9-4.6-2.3-6.4-4.1c-2-2.1-3.6-4.7-4.6-7.9c-1.1-3.2-1.6-6.6-1.6-10.3
		c0-3.8,0.6-7.4,1.7-10.7c1.2-3.3,2.8-6.1,4.8-8.3c1.8-2,4-3.4,6.4-4.3c2.4-0.9,5.3-1.4,8.6-1.4c3.3,0,6.2,0.4,8.7,1.3
		c2.5,0.9,4.7,2.3,6.4,4.2c2.1,2.1,3.6,4.7,4.7,7.9C141.5,242.6,142.1,246,142.1,249.7z M106.5,249.4c0,3.6,0.3,6.8,0.9,9.7
		c0.6,2.8,1.5,5.1,2.6,6.9c1.1,1.6,2.6,2.8,4.3,3.6c1.7,0.8,3.9,1.2,6.4,1.2c4.6,0,8-1.4,10.2-4.3c1.2-1.6,2.1-3.8,2.7-6.4
		c0.6-2.7,0.9-5.8,0.9-9.5c0-3.6-0.3-6.8-0.9-9.6c-0.6-2.8-1.5-5-2.7-6.7c-1.1-1.7-2.6-2.9-4.4-3.7c-1.8-0.8-3.9-1.2-6.3-1.2
		c-2.3,0-4.3,0.4-6,1.1c-1.7,0.7-3.1,1.8-4.2,3.2C107.7,237,106.5,242.2,106.5,249.4z"/>
	<path class="st0" d="M163.3,226.6h39v13.8h-3.4l-2.1-9.8h-10.7v38.8l6.9,1.6v2.8h-20.4V271l6.9-1.6v-38.8h-10.8l-2,9.8h-3.4V226.6z
		"/>
	<path class="st0" d="M49,374.3c-2.6,0-4.9-0.4-7-1.2c-2.1-0.8-3.9-1.9-5.3-3.3l-0.7,3.8h-3.7v-14.9h4c0.3,4.1,1.3,7.2,3.1,9.1
		c1.8,1.9,4.6,2.9,8.3,2.9c3.1,0,5.4-0.6,7-1.8c1.6-1.2,2.4-3,2.4-5.3c0-1.9-0.5-3.4-1.4-4.7c-0.9-1.3-2.3-2.4-4.1-3.4
		c-1.8-1-3.9-2-6.3-2.9c-2.8-1.1-5.1-2.3-7-3.4c-1.9-1.1-3.4-2.5-4.4-4.1c-1-1.6-1.5-3.7-1.5-6.2c0-4.1,1.3-7.4,3.9-9.7
		c2.6-2.3,6.1-3.5,10.4-3.5c4.3,0,7.8,1.2,10.5,3.7l0.5-2.9h3.7v14.9h-3.7c0-4.2-0.8-7.2-2.4-9.2c-1.6-1.9-4-2.9-7.4-2.9
		c-6,0-9,2.7-9,8.2c0,1.4,0.3,2.6,0.8,3.6c0.5,0.9,1.5,1.8,2.8,2.6c1.4,0.8,3.3,1.7,5.9,2.8c3.6,1.5,6.5,3,8.8,4.5
		c2.2,1.4,3.8,3,4.8,4.7c1,1.7,1.5,3.7,1.5,6c0,2.7-0.6,5-1.9,6.9c-1.2,1.9-3,3.4-5.2,4.4C54.5,373.8,51.9,374.3,49,374.3z"/>
	<path class="st0" d="M117.1,369.4l-3.9-11.7H95.7l-4,11.7l5.4,1.4v2.8H81.8v-2.8l5.4-1.4l15.7-43.6h6.1l15.5,43.6l5.2,1.4v2.8h-18
		v-2.8L117.1,369.4z M104.7,331.6L97,353.9h15l-7.1-22.3H104.7z"/>
	<path class="st0" d="M152.7,330.6l13,37.5h0.3l12.2-37.5l-5.4-1.4v-2.8H188v2.8l-5.4,1.4l-14.7,43h-6.4l-15.9-43l-5.2-1.4v-2.8
		h17.7v2.8L152.7,330.6z"/>
	<path class="st0" d="M234.5,358h-3.3l-1.2-6.7h-10.9v18.3h19.8l2-10.7h3.8v14.6h-38.3v-2.8l6.2-1.4v-38.8l-6.2-1.4v-2.8h36.9v13.9
		h-3.4l-2.1-10.1h-18.7v17.2H230l1.2-6.7h3.3V358z"/>
	<path class="st0" d="M272.1,365.8c1.4,0,2.5,0.5,3.3,1.5c0.8,1,1.2,2.3,1.2,4c0,2.4-0.7,4.5-2,6.4c-1.3,1.9-3.4,3.8-6.2,5.6
		l-1.4-1.6c1.9-1.5,3.3-3,4.4-4.3c1-1.4,1.6-2.6,1.7-3.6l-0.3-0.2c-0.2,0.4-0.8,0.6-1.6,0.6c-1,0-1.8-0.4-2.4-1.1
		c-0.7-0.8-1-1.7-1-2.9c0-1.3,0.4-2.3,1.2-3.1C269.8,366.2,270.9,365.8,272.1,365.8z"/>
	<path class="st0" d="M76.2,467.2l10.1-36.9l-5.2-1.3v-2.8h15v2.8l-5.4,1.4l-12.4,43h-6.8l-9.6-31.5l-8.7,31.5h-6.8l-13.6-43
		l-5.1-1.4v-2.8h18.6v2.8l-6.3,1.4l10.8,36.8H51l8.9-32.9l-0.9-3.9l-5.1-1.4v-2.8h17.3v2.8l-6,1.4l10.7,36.8H76.2z"/>
	<path class="st0" d="M143,469.2l-3.9-11.7h-17.5l-4,11.7l5.4,1.4v2.8h-15.3v-2.8l5.4-1.4l15.7-43.6h6.1l15.5,43.6l5.2,1.4v2.8h-18
		v-2.8L143,469.2z M130.5,431.4l-7.7,22.3h15l-7.1-22.3H130.5z"/>
	<path class="st0" d="M186.6,430.4v39h17.8l2.2-11.3h3.6v15.3h-36.3v-2.8l6.2-1.4v-38.8l-6.2-1.4v-2.8h19.5v2.8L186.6,430.4z"/>
	<path class="st0" d="M243.5,430.4v19l18.3-19l-6-1.4v-2.8h17.2v2.8l-5.8,1.4L252,445.6l19.6,23.7l5.5,1.2v2.8h-18.3v-2.8l4.3-1.3
		l-15.5-19.2l-4.1,3.9v15.2l5.5,1.4v2.8h-18.2v-2.8l6.2-1.4v-38.8l-6.2-1.4v-2.8H249v2.8L243.5,430.4z"/>
	<path class="st0" d="M76.2,567l10.1-36.9l-5.2-1.3V526h15v2.8l-5.4,1.4l-12.4,43h-6.8l-9.6-31.5l-8.7,31.5h-6.8l-13.6-43l-5.1-1.4
		V526h18.6v2.8l-6.3,1.4L50.7,567H51l8.9-32.9l-0.9-3.9l-5.1-1.4V526h17.3v2.8l-6,1.4L75.9,567H76.2z"/>
	<path class="st0" d="M127.3,530.2V569l6.2,1.4v2.8h-18.9v-2.8l6.2-1.4v-38.8l-6.2-1.4V526h18.9v2.8L127.3,530.2z"/>
	<path class="st0" d="M154.1,526h39v13.8h-3.4l-2.1-9.8h-10.7v38.8l6.9,1.6v2.8h-20.4v-2.8l6.9-1.6v-38.8h-10.8l-2,9.8h-3.4V526z"/>
	<path class="st0" d="M254.8,530.2V569l5.5,1.4v2.8h-17.5v-2.8l5.5-1.4v-18.1H226V569l5.5,1.4v2.8H214v-2.8l5.5-1.4v-38.8l-5.5-1.4
		V526h17.5v2.8l-5.5,1.4V547h22.2v-16.8l-5.5-1.4V526h17.5v2.8L254.8,530.2z"/>
	<path class="st0" d="M59.8,667l12.6-41.2h15.3v2.8l-5.5,1.4v38.8l5.5,1.4v2.8H70.9v-2.8l4.8-1.4v-38.7L62.2,673h-7.7l-13.6-42.9
		v38.7l4.8,1.4v2.8H31.1v-2.8l5.5-1.4V630l-5.5-1.4v-2.8h15.6L59.5,667H59.8z"/>
	<path class="st0" d="M137.5,657.4h-3.3l-1.2-6.7h-10.9V669h19.8l2-10.7h3.8V673h-38.3v-2.8l6.2-1.4V630l-6.2-1.4v-2.8h36.9v13.9
		h-3.4l-2.1-10.1h-18.7v17.2H133l1.2-6.7h3.3V657.4z"/>
	<path class="st0" d="M170.9,669.5c0-1.3,0.4-2.3,1.1-3.1c0.7-0.8,1.7-1.1,3-1.1c1.3,0,2.3,0.4,3,1.2c0.8,0.8,1.1,1.8,1.1,3.1
		c0,1.3-0.4,2.3-1.1,3c-0.8,0.7-1.8,1.1-3,1.1c-1.3,0-2.3-0.4-3-1.1C171.2,671.8,170.9,670.8,170.9,669.5z"/>
</g>
</svg>
